<svg xmlns="http://www.w3.org/2000/svg" xmlns:xlink="http://www.w3.org/1999/xlink" xmlns:sketch="http://www.bohemiancoding.com/sketch/ns" viewBox="0 0 100 125" version="1.1" x="0px" y="0px"><title>Best car</title><description>Created with Sketch (http://www.bohemiancoding.com/sketch)</description><defs><path d="M30.2079419,35.612253 C32.9327401,35.0973431 37.8552822,34.349245 43.8766451,34.2433419 C44.0497115,38.4832445 44.557452,43.2313661 44.557452,43.2313661 L25.523527,42.5571837 L30.2079419,35.612253 Z M1.45759362,49.7351399 C1.27565229,49.8303228 1.05051103,49.9992302 0.773148315,50.2792867 C-0.371366251,51.4349182 -0.00746493131,55.284271 0.364347294,56.2129251 C0.736159566,57.1415793 0.716094344,58.8354959 0.716094344,58.8354959 L9.7565439,60.0503355 C9.82175536,59.0324741 9.9844633,53.0536612 17.0935815,51.791282 C25.3798262,51.8933429 26.5618578,57.1586934 26.7376081,60.6339265 C26.9133588,64.1091596 26.959327,62.6484707 26.959327,62.6484707 C26.959327,62.6484707 73.6212268,62.5703876 73.6496633,62.5849346 C73.2341363,59.8407107 73.8688721,54.1795407 78.4387501,52.3913453 C79.7497717,51.8783421 81.8821748,51.2876715 83.7942145,51.6639958 C87.6053483,52.4140966 89.4667925,54.4187342 90.2984697,56.6683743 C91.3384724,59.481522 90.6168299,62.5415075 90.6168299,62.5415075 L98.2121476,61.8192923 C98.2121476,61.8192923 98.9931526,61.7175352 99.3153613,60.922585 C99.6375701,60.1276348 98.9301151,59.5683595 98.9301151,59.5683595 C98.9301151,59.5683595 99.6534278,58.4484552 99.9563938,57.2791339 C100.25936,56.1098126 98.8843602,52.9599615 98.8843602,52.9599615 C98.8843602,52.9599615 98.0276313,52.0469239 97.3325412,51.8257241 C98.7584279,46.4914713 82.0044272,43.6706388 82.0044272,43.6706388 C82.0044272,43.6706388 79.9242886,43.0641577 75.6902474,41.8974035 C60.6997353,33.9271513 54.953217,32.5274666 45.1625181,32.328729 C35.3718192,32.1299901 21.1129593,34.8059599 21.1129593,34.8059599 L20.9513204,35.4913798 C20.9513204,35.4913798 17.1120293,36.7532045 13.2555129,37.7222035 C10.0492006,38.5278304 6.82566294,39.0406314 6.82566294,39.0406314 C6.82566294,39.0406314 3.84624755,38.5984457 3.69594048,39.1257741 C3.54563341,39.6531025 4.14664788,40.2978764 4.14664788,40.2978764 C4.14664788,40.2978764 4.42347853,40.4996032 4.80717418,40.7904439 C3.77702624,42.0868781 1.44305732,45.493854 1.45759361,49.7351399 L1.45759362,49.7351399 Z M2.16653674,49.8450814 C2.1709828,49.8548161 2.17298563,49.8605969 2.17298563,49.8605969 L4.27001514,49.6554416 L7.2062413,43.9568722 C7.2062413,43.9568722 7.52670366,43.2719161 6.94728382,42.5941975 C6.70056832,42.3056267 6.1561895,41.8464703 5.61236628,41.4143171 C2.50196049,45.4030766 2.15300573,48.5527792 2.16653674,49.8450814 L2.16653674,49.8450814 Z M86.8666266,46.8934392 C86.5703621,46.7151881 86.0968302,46.5637566 85.9181405,46.4103578 C85.5590458,46.1020877 85.6589523,45.8555946 85.6589523,45.8555946 C85.6589523,45.8555946 87.6090862,44.779504 94.7205884,49.0813249 C96.4079641,50.0997229 96.1361289,50.9914681 96.1055693,51.1905539 C96.1124061,51.2192316 95.5268457,51.3217807 94.8672083,51.2085194 C94.5750501,51.1583552 94.2551163,51.2236736 93.9882561,50.9525278 C93.6550279,50.613948 92.8162481,50.2616981 92.049254,49.7974964 C90.8151899,49.0506138 89.5855571,48.2180834 89.5855571,48.2180834 C89.5855571,48.2180834 87.9382915,47.5382192 86.8666266,46.8934392 Z M29.9946256,56.2015497 L70.4650243,57.4254108 L70.4822284,58.0676413 L30.1385922,57.3177147 L29.3420094,56.154687 L29.9946256,56.2015497 Z M27.0337598,35.8142912 L22.6333336,42.4623235 L20.5905523,42.3214721 C20.5905523,42.3214721 19.3007489,41.8681821 17.7996375,41.0268907 C16.9719334,40.5630075 16.0265507,40.0825919 15.3235863,39.2562313 C17.8660978,37.8939346 27.0337598,35.8142912 27.0337598,35.8142912 Z M55.9203685,35.5094418 C55.2992692,35.3368775 52.6603395,34.763353 52.0216326,34.6430381 C47.8283282,33.8531341 46.5261813,34.048238 46.5261813,34.048238 L48.2453867,43.3165635 L66.5848948,44.5903726 C66.5848948,44.5903726 67.4905301,42.9399951 66.723585,39.8226813 C65.3767933,38.8055702 60.5063238,36.7835897 55.9203685,35.5094418 Z M82.4288259,67.6818172 C86.5913795,67.6818172 89.9657956,64.3074011 89.9657956,60.1448475 C89.9657956,55.9822938 86.5913795,52.6078778 82.4288259,52.6078778 C78.2662722,52.6078778 74.8918561,55.9822938 74.8918561,60.1448475 C74.8918561,64.3074011 78.2662722,67.6818172 82.4288259,67.6818172 Z M82.346002,65.1971019 C85.0905429,65.1971019 87.3154326,62.9722122 87.3154326,60.2276713 C87.3154326,57.4831305 85.0905429,55.2582407 82.346002,55.2582407 C79.6014612,55.2582407 77.3765714,57.4831305 77.3765714,60.2276713 C77.3765714,62.9722122 79.6014612,65.1971019 82.346002,65.1971019 Z M81.6984464,57.4530097 C81.4388398,57.0800322 81.2802922,56.6216032 81.2802922,56.6216032 C81.2802922,56.6216032 82.0233368,55.7303096 83.3126718,56.5030969 C83.1434397,56.9749364 83.0793318,57.2466418 82.9871537,57.45921 C82.8257443,57.8314294 82.6965697,57.9436581 82.6138414,58.0679595 C82.4493284,58.1048902 82.259906,58.0849041 82.259906,58.0849041 C82.259906,58.0849041 81.9190043,57.7698857 81.6984464,57.4530097 Z M84.3295191,58.1398669 C84.5227237,57.7285523 84.8404611,57.3620315 84.8404611,57.3620315 C84.8404611,57.3620315 85.9838663,57.5598802 85.9592804,59.0628707 C85.4660393,59.1522312 85.1986816,59.2325649 84.9685031,59.2590203 C84.5654469,59.3053455 84.4036667,59.2495913 84.2546544,59.2400972 C84.140415,59.1160901 84.0630123,58.9420524 84.0630123,58.9420524 C84.0630123,58.9420524 84.1653754,58.4893137 84.3295191,58.1398669 Z M85.0502196,60.7618713 C85.5030308,60.7235341 85.9793158,60.8154424 85.9793158,60.8154424 C85.9793158,60.8154424 86.3796765,61.9045847 85.0657555,62.6347879 C84.7417465,62.2523089 84.5384967,62.0609372 84.4004963,61.8748244 C84.1588495,61.5489301 84.1262439,61.3809473 84.0599599,61.2471518 C84.1102334,61.086214 84.2222532,60.9321624 84.2222532,60.9321624 C84.2222532,60.9321624 84.665518,60.7944421 85.0502196,60.7618713 Z M83.1398474,62.6970185 C83.399454,63.0699959 83.5580016,63.528425 83.5580016,63.528425 C83.5580016,63.528425 82.814957,64.4197186 81.525622,63.6469313 C81.6948541,63.1750918 81.758962,62.9033864 81.8511401,62.6908182 C82.0125495,62.3185987 82.1417241,62.20637 82.2244524,62.0820687 C82.3889654,62.045138 82.5783878,62.0651241 82.5783878,62.0651241 C82.5783878,62.0651241 82.9192895,62.3801425 83.1398474,62.6970185 Z M80.5087747,62.0101612 C80.3155701,62.4214759 79.9978327,62.7879967 79.9978327,62.7879967 C79.9978327,62.7879967 78.8544275,62.590148 78.8790134,61.0871575 C79.3722545,60.9977969 79.6396122,60.9174633 79.8697907,60.8910078 C80.2728469,60.8446827 80.4346271,60.9004368 80.5836394,60.909931 C80.6978788,61.033938 80.7752815,61.2079758 80.7752815,61.2079758 C80.7752815,61.2079758 80.6729184,61.6607145 80.5087747,62.0101612 Z M79.7880742,59.3881568 C79.335263,59.426494 78.858978,59.3345857 78.858978,59.3345857 C78.858978,59.3345857 78.4586173,58.2454435 79.7725383,57.5152403 C80.0965473,57.8977193 80.2997971,58.089091 80.4377975,58.2752037 C80.6794443,58.601098 80.7120499,58.7690809 80.7783339,58.9028764 C80.7280604,59.0638142 80.6160406,59.2178657 80.6160406,59.2178657 C80.6160406,59.2178657 80.1727758,59.3555861 79.7880742,59.3881568 Z M81.6133792,60.5141614 C81.6981902,60.2531401 81.5553435,59.9727876 81.2943221,59.8879767 C81.0333008,59.8031657 80.7529483,59.9460124 80.6681373,60.2070337 C80.5833264,60.4680551 80.7261731,60.7484075 80.9871944,60.8332185 C81.2482158,60.9180295 81.5285682,60.7751828 81.6133792,60.5141614 Z M82.4943677,60.874048 C82.2723296,60.7127279 81.9615565,60.7619496 81.8002365,60.9839876 C81.6389164,61.2060256 81.688138,61.5167987 81.910176,61.6781188 C82.1322141,61.8394388 82.4429872,61.7902172 82.6043072,61.5681792 C82.7656273,61.3461412 82.7164057,61.0353681 82.4943677,60.874048 Z M83.1088805,60.1473893 C82.8868425,60.3087093 82.8376209,60.6194824 82.9989409,60.8415205 C83.160261,61.0635585 83.4710341,61.1127801 83.6930721,60.95146 C83.9151101,60.79014 83.9643318,60.4793669 83.8030117,60.2573288 C83.6416916,60.0352908 83.3309185,59.9860692 83.1088805,60.1473893 Z M82.6076819,59.3384029 C82.6924929,59.5994243 82.9728453,59.742271 83.2338667,59.65746 C83.494888,59.572649 83.6377348,59.2922966 83.5529238,59.0312752 C83.4681128,58.7702539 83.1877603,58.6274072 82.926739,58.7122181 C82.6657176,58.7970291 82.5228709,59.0773816 82.6076819,59.3384029 Z M81.6834113,59.5650806 C81.9578654,59.5650806 82.1803543,59.3425916 82.1803543,59.0681375 C82.1803543,58.7936834 81.9578654,58.5711945 81.6834113,58.5711945 C81.4089572,58.5711945 81.1864682,58.7936834 81.1864682,59.0681375 C81.1864682,59.3425916 81.4089572,59.5650806 81.6834113,59.5650806 Z M82.2631782,60.5589667 C82.4918899,60.5589667 82.6772974,60.3735592 82.6772974,60.1448475 C82.6772974,59.9161357 82.4918899,59.7307283 82.2631782,59.7307283 C82.0344664,59.7307283 81.849059,59.9161357 81.849059,60.1448475 C81.849059,60.3735592 82.0344664,60.5589667 82.2631782,60.5589667 Z M18.1429076,67.6818172 C22.3054613,67.6818172 25.6798774,64.3074011 25.6798774,60.1448475 C25.6798774,55.9822938 22.3054613,52.6078778 18.1429076,52.6078778 C13.980354,52.6078778 10.6059379,55.9822938 10.6059379,60.1448475 C10.6059379,64.3074011 13.980354,67.6818172 18.1429076,67.6818172 Z M18.0600838,65.1971019 C20.8046247,65.1971019 23.0295144,62.9722122 23.0295144,60.2276713 C23.0295144,57.4831305 20.8046247,55.2582407 18.0600838,55.2582407 C15.3155429,55.2582407 13.0906532,57.4831305 13.0906532,60.2276713 C13.0906532,62.9722122 15.3155429,65.1971019 18.0600838,65.1971019 Z M17.4125282,57.4530097 C17.1529215,57.0800322 16.994374,56.6216032 16.994374,56.6216032 C16.994374,56.6216032 17.7374185,55.7303096 19.0267535,56.5030969 C18.8575215,56.9749364 18.7934136,57.2466418 18.7012355,57.45921 C18.5398261,57.8314294 18.4106515,57.9436581 18.3279232,58.0679595 C18.1634102,58.1048902 17.9739878,58.0849041 17.9739878,58.0849041 C17.9739878,58.0849041 17.6330861,57.7698857 17.4125282,57.4530097 Z M20.0436009,58.1398669 C20.2368055,57.7285523 20.5545429,57.3620315 20.5545429,57.3620315 C20.5545429,57.3620315 21.6979481,57.5598802 21.6733621,59.0628707 C21.1801211,59.1522312 20.9127634,59.2325649 20.6825849,59.2590203 C20.2795287,59.3053455 20.1177485,59.2495913 19.9687362,59.2400972 C19.8544968,59.1160901 19.7770941,58.9420524 19.7770941,58.9420524 C19.7770941,58.9420524 19.8794571,58.4893137 20.0436009,58.1398669 Z M20.7643014,60.7618713 C21.2171126,60.7235341 21.6933976,60.8154424 21.6933976,60.8154424 C21.6933976,60.8154424 22.0937582,61.9045847 20.7798373,62.6347879 C20.4558283,62.2523089 20.2525785,62.0609372 20.1145781,61.8748244 C19.8729313,61.5489301 19.8403257,61.3809473 19.7740417,61.2471518 C19.8243152,61.086214 19.936335,60.9321624 19.936335,60.9321624 C19.936335,60.9321624 20.3795997,60.7944421 20.7643014,60.7618713 Z M18.8539292,62.6970185 C19.1135358,63.0699959 19.2720834,63.528425 19.2720834,63.528425 C19.2720834,63.528425 18.5290388,64.4197186 17.2397038,63.6469313 C17.4089358,63.1750918 17.4730437,62.9033864 17.5652219,62.6908182 C17.7266312,62.3185987 17.8558058,62.20637 17.9385342,62.0820687 C18.1030471,62.045138 18.2924696,62.0651241 18.2924696,62.0651241 C18.2924696,62.0651241 18.6333713,62.3801425 18.8539292,62.6970185 Z M16.2228565,62.0101612 C16.0296519,62.4214759 15.7119145,62.7879967 15.7119145,62.7879967 C15.7119145,62.7879967 14.5685093,62.590148 14.5930952,61.0871575 C15.0863362,60.9977969 15.3536939,60.9174633 15.5838725,60.8910078 C15.9869286,60.8446827 16.1487089,60.9004368 16.2977212,60.909931 C16.4119606,61.033938 16.4893633,61.2079758 16.4893633,61.2079758 C16.4893633,61.2079758 16.3870002,61.6607145 16.2228565,62.0101612 Z M15.502156,59.3881568 C15.0493447,59.426494 14.5730597,59.3345857 14.5730597,59.3345857 C14.5730597,59.3345857 14.1726991,58.2454435 15.4866201,57.5152403 C15.8106291,57.8977193 16.0138789,58.089091 16.1518793,58.2752037 C16.3935261,58.601098 16.4261317,58.7690809 16.4924157,58.9028764 C16.4421421,59.0638142 16.3301224,59.2178657 16.3301224,59.2178657 C16.3301224,59.2178657 15.8868576,59.3555861 15.502156,59.3881568 Z M17.327461,60.5141614 C17.412272,60.2531401 17.2694252,59.9727876 17.0084039,59.8879767 C16.7473826,59.8031657 16.4670301,59.9460124 16.3822191,60.2070337 C16.2974081,60.4680551 16.4402548,60.7484075 16.7012762,60.8332185 C16.9622975,60.9180295 17.24265,60.7751828 17.327461,60.5141614 Z M18.2084494,60.874048 C17.9864114,60.7127279 17.6756383,60.7619496 17.5143182,60.9839876 C17.3529982,61.2060256 17.4022198,61.5167987 17.6242578,61.6781188 C17.8462958,61.8394388 18.1570689,61.7902172 18.318389,61.5681792 C18.4797091,61.3461412 18.4304874,61.0353681 18.2084494,60.874048 Z M18.8229623,60.1473893 C18.6009243,60.3087093 18.5517026,60.6194824 18.7130227,60.8415205 C18.8743428,61.0635585 19.1851159,61.1127801 19.4071539,60.95146 C19.6291919,60.79014 19.6784135,60.4793669 19.5170935,60.2573288 C19.3557734,60.0352908 19.0450003,59.9860692 18.8229623,60.1473893 Z M18.3217637,59.3384029 C18.4065747,59.5994243 18.6869271,59.742271 18.9479485,59.65746 C19.2089698,59.572649 19.3518165,59.2922966 19.2670055,59.0312752 C19.1821946,58.7702539 18.9018421,58.6274072 18.6408208,58.7122181 C18.3797994,58.7970291 18.2369527,59.0773816 18.3217637,59.3384029 Z M17.397493,59.5650806 C17.6719471,59.5650806 17.8944361,59.3425916 17.8944361,59.0681375 C17.8944361,58.7936834 17.6719471,58.5711945 17.397493,58.5711945 C17.123039,58.5711945 16.90055,58.7936834 16.90055,59.0681375 C16.90055,59.3425916 17.123039,59.5650806 17.397493,59.5650806 Z M17.9772599,60.5589667 C18.2059717,60.5589667 18.3913792,60.3735592 18.3913792,60.1448475 C18.3913792,59.9161357 18.2059717,59.7307283 17.9772599,59.7307283 C17.7485482,59.7307283 17.5631407,59.9161357 17.5631407,60.1448475 C17.5631407,60.3735592 17.7485482,60.5589667 17.9772599,60.5589667 Z M17.9772599,60.5589667" id="a"/></defs><g stroke="none" stroke-width="1" fill="none" fill-rule="evenodd" sketch:type="MSPage"><g sketch:type="MSArtboardGroup"><g><use fill="none" sketch:type="MSShapeGroup" xlink:href="#a"/><use fill="#000000" fill-rule="evenodd" xlink:href="#a"/></g></g></g><text x="0" y="115" fill="#000000" font-size="5px" font-weight="bold" font-family="'Helvetica Neue', Helvetica, Arial-Unicode, Arial, Sans-serif">Created by Nurutdinov Timur</text><text x="0" y="120" fill="#000000" font-size="5px" font-weight="bold" font-family="'Helvetica Neue', Helvetica, Arial-Unicode, Arial, Sans-serif">from the Noun Project</text></svg>