<svg id="Layer_3" data-name="Layer 3" xmlns="http://www.w3.org/2000/svg" viewBox="0 0 698 284"><path d="M79.72,121.69c-6.25.94-25,9-37,30s-15,56-3,68,30-10,30-10,3,20,22,16,17-60,13-66-19,0-16,10,8,51,3,52-10-26-12-34-13-8-14-4-11,37-19,32-3.43-39.37,13-58c15-17,28.71-20.5,32-26C95.3,125.71,84.56,121,79.72,121.69Z"/><path d="M165.72,102.69c-2-5-10-3-16-3s-3,11-3,11c-4-2-7.64-4.33-16.41-4.48C118,106,105,116,104.72,129.69c-.26,12.65,6,32,23,31s23-14,23-14-.06,5.57,2,9c3,5,16.42,6.75,18,2C172.72,151.69,167.21,106.41,165.72,102.69Zm-44,27c-2-24,17.28-19.69,26-13l3,27C138.72,151.69,123.72,153.69,121.72,129.69Z"/><path d="M171.72,95.69c-1.08-4.88,15-9,18-5s18,73,18,73,1.16-52.25,3-67c2-16,6.72-21,14-21,10,0,20,21,30,65s20,79,14,86c-2,2.28-14,5-17,0s-21-134-30-138,0,130-3,138-12-1-13-7S173.72,104.69,171.72,95.69Z"/><path d="M326.72,44.69c-5-4-21-2-21,6s6,71,6,71-7.72-18.18-29-10c-13,5-18,23-17,44s14,51,29,44,23-22,23-22,0,18,4,22c3.54,3.54,21,5,21-5S331.72,48.69,326.72,44.69Zm-39,121c-6-19-1-49,9-48s17,20,17,20v2l3,34C300.72,192.69,293.72,184.69,287.72,165.69Z"/><path d="M391.71,102.32c-2.82,5.88,4.72,15.68-3.76,22.55s-27.33,2.94-27.33-23.53c22.61,2.94,33.92-11.76,33-44.11-.66-22.56-21.67-27.45-33-19.61s-18.85,18.63-17.9,54.9,10.36,42.15,24.49,44.11,28.27-3.92,31.1-15.69S394.54,96.44,391.71,102.32ZM368.16,40.56c12.25-4.9,13.29,19.35,9.42,34.31-6.6,25.49-17,20.59-17,20.59S355.91,45.46,368.16,40.56Z"/><path d="M401.72,37.69c1-5.75,14-7,17-4s6,24,6,24,9-27,22-24,20,26,15,32-14,3-15-2-1-26-6-21-15,23-14,28,12,48,9,54-21,8-22,2S400.72,43.69,401.72,37.69Z"/><path d="M470.72,55.69c2.65-3.31,20-2,21,3s6,72-1,72-16,2-17-4S466.72,60.69,470.72,55.69Z"/><path d="M523.06,142.89c-2.15-3.55-17.61-3.93-19.06,1s-17.43,78.39-11.28,80.85c5,2,16.44,1.87,18-4S526.31,148.25,523.06,142.89Z"/><path d="M509.72,42.69c2-3,16,0,18,2s-6,65-6,65,21-55,29-59,16,4,17,13,3,59,0,62-16,2-18,0,4-73,0-65-24,63-30,67-14,4-16-2S507.72,45.69,509.72,42.69Z"/><path d="M651.72,75.69c2-3-8.05-5.29-13-6-7-1-19,0-19,0-13-27-36.22-8-41,12-5,21,1,38,23,38s25-27,25-27l6,16s-17.33,7-17,24C616,147,633.53,144.15,641,140c9-5,10-11,6.72-26.31-3-13.83-6-21-7-25S649.72,78.69,651.72,75.69Zm-43,32c-13,3-19-26-10-37s22,7,22,7l4,9S621.72,104.69,608.72,107.69ZM640,135c-5,2-11.72,1.31-12-5-.4-9,1.72-13.31,5.72-17.31C633.72,112.69,645,133,640,135Z"/><path d="M412.22,139.19c-16-2-32.5,30.5-32.5,30.5s2.5-14.5,0-21c-2.3-6-18.63-2-21.5,4.5-4,9-2.5,66.5-2.5,70.5s21,4.68,21.5,2.5c1.5-6.5,2-24,2-24s28.89,7.37,42-15C429.72,172.69,428.22,141.19,412.22,139.19Zm-19.5,58.5c-10,1-13-2-13-2v-20s21-34,25-25S402.72,196.69,392.72,197.69Z"/><path d="M434.72,142.69c0-4.47,20-8,22-4s-2,20-2,20,17.74-23.42,28-20c15,5,14,30,6,31s-12,3-14-1,3-24-1-21-19,19-19,19-3,51-4,55-19,3-19,0S434.72,146.69,434.72,142.69Z"/><path d="M537.72,141.69c5.43-7.24,20-6,20,1s-29,103,2,99c21.66-2.79,15-70,17-86-2-13-3-11-1-14s24-6,25,1,11,69,9,74-13,16-14,13-13-59-13-59S585,225,572,241c-11.63,14.31-34.74,11-41.28,1.69-7-10-8.47-20-8-33C523.7,182.56,533.66,147.1,537.72,141.69Z"/><path d="M665.72,170.69a39.14,39.14,0,0,1-16,10,52,52,0,0,1-5-3s19-10,13-22-31.4-5.2-35,5C616.72,177.69,635,185,635,185s-20.28,2.69-20.28,17.69c0,13.6,16,16,27,12s15.44-8.06,17-19a13.38,13.38,0,0,0-3-11s8.65-2.21,10-4S667.23,169.05,665.72,170.69Zm-34-12c4-4,11,0,13,5s-5,10-5,10S627.72,162.69,631.72,158.69Zm16,50c-5.82,3.33-18,2-18-6s12-12,12-12S654.72,204.69,647.72,208.69Z"/><path d="M469.72,37.69c0-4.47,18-1,20,0s3,11,0,11-17,0-19-2S469.72,40.69,469.72,37.69Z"/><path d="M265,119.39c-2.55.94-19.52-31.13-19.29-33.7.29-3.34,4.93-8.08,9-8S269.88,109.44,270,111C270.18,113.29,268.61,118.06,265,119.39Z"/><path d="M281.72,54.69c1.27-2.53,11-8,13-6s7,47,5,48-5,3-6,0S279.72,58.69,281.72,54.69Z"/><path d="M272.72,63.69c2.68.67,13.73,35.25,12,37s-5.81,4.54-7.12,3.08C276,102,261.72,76.08,261.72,71.69S268.72,62.69,272.72,63.69Z"/><path d="M282.72,210.69c4-2,59-3,60,0s4,11,0,14-57,3-59,1S280.72,211.69,282.72,210.69Z"/><path d="M188.54,207.11A37,37,0,1,0,153,246,37.21,37.21,0,0,0,188.54,207.11Zm-26.29,25.11c-1-.13-1.06-2.12-1.06-2.12l-.2-1.48a.43.43,0,0,1,.6-.46l1.22.52,1.92.19C164.46,230.59,163.26,232.36,162.25,232.22Zm11.86-19.7L171.78,218a1.73,1.73,0,0,1-1.15,1l-3,4.77a1.67,1.67,0,0,1-1.95.69l-.47-.16-2.07,1.3-1.78-1.35a3,3,0,0,1-2.21,0,6.13,6.13,0,0,1-1.87-1.09,5.16,5.16,0,0,1-1.11-3s-.91,0-1.14-.24.13-.79.13-.79-.8.39-1,0,.62-1.79.62-1.79l-2,1.51s-1.67-4.16-5.14-4.29-7.45,3.28-7.45,3.28l-3.45.3a5.61,5.61,0,0,1-3.46,1.71,1.75,1.75,0,0,1-2-2,9.53,9.53,0,0,0-1.57-6.62,12.79,12.79,0,0,1-1.63-3.95,4.71,4.71,0,0,1,2.89-5.57l1.36-.53c1.5-.61,2.93-1.24,4-1.71a2,2,0,0,0,1.09-2.46l4.38-3.84a2.57,2.57,0,0,1,3.2-.16.94.94,0,0,0,1.31-.24l1.53-2.33.75-.09a1,1,0,0,0,.85-1.32l6.92,1.38-1.56,1.87a1.41,1.41,0,0,0,.29,2.07l3.79,2.59a1.65,1.65,0,0,0,2.56-1.52l-.33-3.26,1.13-2.68a.55.55,0,0,1,1,.05l1.15,3.77.61.21a1.91,1.91,0,0,1,1.3,1.46l.92,4.7,2.68,1.9.34,2.34a3.68,3.68,0,0,1,1.68,1.8c.41.85,1.12,2,1.61,2.8a3,3,0,0,1,.44,1.9l-.05.44.16.51A1.63,1.63,0,0,1,174.11,212.52Z"/></svg>